<?xml version="1.0" encoding="UTF-8" standalone="no"?>
<svg
   width="680"
   height="340"
   viewBox="0 0 680 340"
   version="1.1"
   id="svg2"
   xmlns="http://www.w3.org/2000/svg"
   xmlns:svg="http://www.w3.org/2000/svg">
<title
     id="title1">Skydive420dz Logo</title>
  <desc
     id="desc1">Elegant signature logo for Skydive420dz — transparent background, no frame</desc>
  <!-- Skydive in Great Vibes script -->
  <path
     d="m 232.41981,195.12 q -10.78,0 -19.8,-3.19 -8.91,-3.19 -14.41,-9.35 -5.5,-6.27 -6.05,-15.4 -0.22,-3.74 1.21,-8.25 1.43,-4.51 3.96,-8.91 2.64,-4.51 6.16,-8.03 3.63,-3.63 7.7,-5.5 0.33,-0.22 0.99,-0.33 0.77,-0.11 1.1,-0.11 0.66,0 0.66,0.33 0,0.55 -1.65,1.76 -4.62,3.63 -7.59,8.36 -3.08,4.73 -4.62,10.12 -1.54,5.39 -1.54,10.89 0,6.49 2.75,11.22 2.86,4.62 7.59,7.59 4.73,3.08 10.78,4.51 6.05,1.43 12.65,1.43 7.37,0 14.52,-1.65 7.26,-1.65 13.2,-4.73 9.13,-4.84 14.41,-11.99 5.39,-7.15 5.39,-14.19 0,-3.74 -1.65,-7.15 -1.54,-3.41 -5.06,-6.16 -2.64,-2.09 -6.49,-3.96 -3.74,-1.87 -8.03,-3.63 -4.18,-1.76 -8.25,-3.52 -4.07,-1.87 -7.15,-3.96 -4.4,-2.97 -6.49,-6.38 -1.98,-3.41 -1.98,-6.82 0,-4.07 2.31,-7.92 2.42,-3.85 6.49,-6.93 4.18,-3.19 9.35,-4.95 4.51,-1.54 9.79,-2.42 5.39,-0.88 10.56,-0.88 4.29,0 8.14,0.66 3.96,0.55 6.93,2.09 3.74,1.76 5.72,4.73 1.98,2.86 1.98,6.05 0,4.4 -3.96,7.7 -1.43,1.1 -3.19,2.09 -1.76,0.88 -4.18,1.54 -0.44,0.11 -0.99,0.11 -1.32,0 -1.32,-0.77 0,-0.44 0.66,-0.88 0.77,-0.55 2.2,-0.66 3.3,-0.44 4.95,-2.53 1.76,-2.09 1.76,-4.84 0,-2.86 -1.98,-5.61 -1.87,-2.86 -5.83,-4.73 -3.96,-1.98 -10.12,-1.98 -3.52,0 -7.81,0.77 -4.18,0.77 -9.13,2.53 -6.05,2.09 -10.12,6.16 -3.96,4.07 -3.96,8.69 0,2.86 1.87,5.83 1.98,2.86 6.27,5.5 3.63,2.2 8.25,4.4 4.62,2.09 9.35,4.29 4.73,2.09 8.58,4.51 6.05,3.74 8.69,8.03 2.64,4.29 2.64,8.8 0,5.28 -3.19,10.67 -3.08,5.28 -8.14,10.01 -5.06,4.62 -11.11,8.25 -7.04,4.18 -15.95,6.38 -8.8,2.31 -17.82,2.31 z m 82.28016,-9.35 q -3.08,-0.33 -5.06,-2.31 -1.98,-2.09 -2.86,-4.84 -0.88,-2.75 -0.88,-5.06 0,-4.4 1.98,-7.04 1.98,-2.75 3.63,-2.86 1.76,0.11 4.29,-0.77 2.53,-0.99 4.4,-2.64 3.19,-2.53 3.19,-5.17 0,-2.75 -3.19,-2.75 -1.76,0 -4.51,1.21 -2.64,1.21 -6.16,4.18 -4.4,3.74 -9.13,10.01 -0.66,1.43 -1.54,4.29 -0.88,2.75 -1.54,5.72 -0.55,2.97 -0.55,5.06 0,1.65 0.55,2.2 h -6.93 q -1.21,0 -1.21,-0.99 0,-0.33 0.11,-0.55 0.11,-0.22 0.22,-0.88 1.54,-5.72 3.63,-10.12 2.2,-4.4 3.63,-7.7 -0.99,0.33 -1.1,-0.11 -0.11,-0.55 -0.11,-0.88 0.77,-1.76 2.53,-5.61 1.87,-3.96 4.29,-9.02 2.53,-5.17 5.39,-10.78 2.86,-5.61 5.72,-10.78 2.86,-5.28 4.62,-7.48 1.87,-2.2 4.51,-2.2 0.99,0 2.31,0.33 1.43,0.33 2.53,0.11 -2.42,2.09 -6.05,7.7 -3.63,5.5 -7.7,12.87 -4.07,7.37 -7.81,15.07 -1.1,2.2 -2.09,4.62 -0.99,2.42 -1.87,4.84 2.31,-2.86 5.28,-5.94 2.97,-3.08 6.16,-5.61 3.3,-2.64 6.49,-3.85 3.63,-1.32 6.05,-1.32 2.53,0 3.63,1.21 1.21,1.21 1.21,3.08 0,2.09 -1.65,5.06 -1.65,2.86 -4.51,4.95 -2.42,1.65 -5.06,2.86 -2.64,1.21 -6.27,1.54 -0.66,1.54 -0.99,3.19 -0.22,1.54 -0.22,3.08 0,4.29 1.98,7.59 1.98,3.19 5.17,3.19 1.54,0 3.3,-0.88 1.87,-0.88 3.85,-2.97 2.2,-2.2 4.4,-6.05 2.2,-3.96 4.4,-8.8 1.32,0 1.32,0.99 -3.96,9.57 -7.7,14.19 -3.74,4.62 -7.26,5.94 -3.41,1.21 -6.82,0.88 z m 5.28006,34.32 q -5.72,0 -8.14,-2.31 -2.42,-2.2 -2.42,-5.28 0,-4.73 3.52,-8.8 3.41,-3.96 8.47,-6.38 5.72,-2.64 12.98,-4.29 7.37,-1.65 14.08,-3.63 2.09,-3.63 3.85,-8.25 1.76,-4.73 3.19,-9.13 1.43,-4.51 2.31,-7.37 -1.32,2.42 -3.41,5.94 -1.98,3.41 -4.51,6.71 -2.53,3.3 -5.5,5.5 -2.86,2.2 -6.05,2.2 -1.21,0 -2.97,-0.55 -1.65,-0.55 -2.97,-1.98 -1.21,-1.54 -1.21,-4.51 0,-2.86 1.76,-6.27 1.76,-3.52 3.52,-6.93 -0.55,0 -0.99,-0.11 -0.33,-0.11 -0.33,-0.88 0.33,-0.66 1.32,-2.86 0.99,-2.2 2.2,-4.84 1.32,-2.64 2.31,-4.62 1.21,-2.53 2.64,-3.52 1.54,-0.99 2.97,-0.99 h 6.82 q -0.77,0.66 -1.98,1.54 -1.1,0.77 -2.09,2.42 -2.97,5.06 -5.17,9.79 -2.2,4.62 -4.73,9.9 -1.21,2.53 -1.76,4.62 -0.55,2.09 -0.55,3.63 0,3.63 2.42,3.63 2.64,0 6.38,-4.29 3.08,-3.63 6.16,-8.58 3.19,-5.06 6.05,-10.34 2.97,-5.39 5.17,-9.9 1.21,-2.42 4.29,-2.42 h 6.05 q -3.19,2.2 -4.95,5.72 -1.65,3.52 -3.74,9.02 -2.31,6.05 -4.4,12.54 -2.09,6.49 -4.62,13.31 5.39,-1.87 9.02,-4.84 3.63,-2.97 6.38,-7.59 2.86,-4.73 5.72,-11.33 1.32,0 1.32,0.99 -2.42,5.06 -4.4,8.91 -1.98,3.85 -4.4,6.82 -2.42,2.86 -6.05,5.28 -3.63,2.53 -9.35,4.84 -2.64,4.73 -6.05,9.79 -3.3,5.17 -7.59,9.57 -4.18,4.51 -9.35,7.26 -5.06,2.86 -11.22,2.86 z m -2.64,-2.2 q 3.63,0 7.48,-2.2 3.85,-2.2 7.48,-5.61 3.63,-3.3 6.6,-6.82 3.08,-3.41 4.95,-6.05 0.55,-0.77 1.21,-1.98 0.66,-1.21 1.32,-2.31 -5.39,1.43 -11.88,3.08 -6.38,1.76 -11.11,3.85 -5.28,2.2 -8.25,6.27 -3.08,4.07 -3.08,7.26 0,1.98 1.32,3.19 1.21,1.32 3.96,1.32 z M 402.26008,185 q -3.74,0 -5.5,-2.53 -1.76,-2.53 -1.76,-5.94 0,-0.99 0.11,-1.98 0.11,-1.1 0.44,-2.2 -1.54,2.42 -3.63,5.39 -1.98,2.86 -4.62,5.06 -2.53,2.09 -5.72,2.09 -1.43,0 -3.3,-0.66 -1.76,-0.66 -3.19,-2.53 -1.32,-1.87 -1.32,-5.5 0,-4.73 2.09,-10.01 2.09,-5.28 5.72,-9.9 3.63,-4.73 8.25,-7.59 4.62,-2.97 9.57,-2.97 3.96,0 7.48,2.09 1.65,-3.08 3.52,-6.82 1.87,-3.85 3.74,-7.59 1.87,-3.74 3.3,-6.82 1.43,-3.19 2.2,-4.84 1.65,-3.85 3.08,-4.84 1.54,-1.1 3.63,-1.1 1.21,0 2.64,0.33 1.54,0.22 2.97,0.11 -0.55,0.55 -2.53,3.63 -1.98,3.08 -4.84,8.03 -2.86,4.84 -6.16,10.67 -3.19,5.83 -6.38,11.99 -3.08,6.05 -5.72,11.66 -2.64,5.61 -4.18,9.9 -1.54,4.29 -1.54,6.49 0,1.43 0.66,2.53 0.66,0.99 2.2,0.99 2.09,0 4.29,-2.09 2.2,-2.09 4.18,-5.17 2.09,-3.19 3.63,-6.16 1.65,-3.08 2.42,-4.95 1.32,0 1.32,0.99 -0.99,2.31 -2.64,5.72 -1.65,3.41 -3.85,6.71 -2.2,3.3 -4.95,5.61 -2.64,2.2 -5.61,2.2 z m -19.91,-3.3 q 1.54,0 3.85,-1.65 2.31,-1.76 4.95,-5.5 3.08,-4.4 7.04,-11 3.96,-6.6 7.81,-13.97 -0.77,-0.66 -1.65,-0.99 -0.88,-0.33 -2.42,-0.33 -2.53,0 -5.61,2.2 -2.97,2.09 -6.05,5.5 -2.97,3.41 -5.5,7.37 -2.42,3.96 -3.96,7.7 -1.43,3.63 -1.43,6.27 0,4.4 2.97,4.4 z m 38.71999,3.3 q -4.07,0 -5.72,-2.31 -1.65,-2.42 -1.65,-5.5 0,-1.65 0.33,-3.3 0.44,-1.76 0.99,-3.19 l 7.37,-18.81 q 0.33,-0.88 0.33,-1.54 0,-1.1 -0.55,-1.87 -0.55,-0.88 -0.77,-1.21 l 6.05,-0.22 q 1.65,-0.11 2.31,0.44 0.77,0.44 0.77,1.1 0,0.66 -0.77,2.42 -1.1,2.64 -2.97,6.6 -1.87,3.96 -3.74,8.14 -1.76,4.18 -3.08,7.81 -1.21,3.63 -1.21,5.61 0,1.43 0.66,2.42 0.77,0.99 2.53,0.99 2.31,0 4.51,-1.76 2.31,-1.87 4.29,-4.73 1.98,-2.86 3.63,-6.16 1.76,-3.3 2.97,-6.16 1.32,0 1.32,0.99 -1.1,2.75 -2.86,6.27 -1.76,3.52 -4.07,6.71 -2.2,3.08 -4.95,5.17 -2.64,2.09 -5.72,2.09 z m 9.79,-44.77 q -1.43,0 -2.53,-1.1 -0.99,-1.1 -0.99,-2.64 0,-1.87 1.54,-3.3 1.54,-1.54 3.41,-1.54 1.54,0 2.64,0.99 1.1,0.99 1.1,2.53 0,1.98 -1.54,3.52 -1.54,1.54 -3.63,1.54 z m 10.12006,45.54 q -3.41,0 -4.73,-1.76 -1.32,-1.76 -1.32,-4.51 0,-2.86 0.99,-6.49 0.99,-3.63 2.64,-8.14 -1.21,0 -1.21,-1.1 0.88,-2.2 1.87,-4.95 1.1,-2.86 1.1,-6.38 0,-1.76 -0.44,-2.97 -0.44,-1.21 -1.32,-1.43 0,0 1.1,-0.22 1.21,-0.22 2.53,-0.44 1.32,-0.22 1.76,-0.22 0.66,-0.11 1.21,-0.11 0.55,-0.11 0.99,-0.11 1.1,0 1.43,0.88 0.44,0.88 0.33,3.85 -0.11,2.75 -1.1,6.71 -0.99,3.85 -2.09,6.71 -1.43,3.74 -2.64,7.59 -1.21,3.85 -1.21,6.38 0,2.2 1.21,2.86 0.88,0.33 1.54,0.33 2.53,0 4.95,-2.42 2.42,-2.42 4.51,-5.83 2.2,-3.52 3.63,-6.71 -0.66,-2.53 -0.66,-6.05 0,-3.74 0.88,-7.59 0.88,-3.85 2.75,-6.38 1.87,-2.64 4.84,-2.64 2.09,0 2.09,1.87 0,0.44 -1.1,3.74 -0.99,3.3 -2.64,7.81 -1.65,4.51 -3.52,8.69 -0.44,0.88 -0.77,1.76 0.44,1.87 1.65,3.08 1.21,1.1 2.97,1.1 2.2,0 4.07,-1.98 1.98,-2.09 4.07,-6.93 1.32,0 1.32,0.99 -1.76,4.4 -4.29,7.04 -2.42,2.64 -5.5,2.64 -3.74,0 -5.39,-3.85 -1.87,3.85 -4.4,7.37 -2.53,3.41 -5.61,5.61 -2.97,2.2 -6.49,2.2 z m 38.28,-0.33 q -4.07,0 -7.37,-2.64 -3.19,-2.64 -3.19,-8.03 0,-4.51 1.98,-9.57 2.09,-5.06 5.39,-9.46 3.41,-4.51 7.48,-7.26 4.18,-2.86 8.36,-2.86 2.09,0 4.07,1.21 1.98,1.21 1.98,4.18 0,2.75 -2.09,6.05 -2.09,3.3 -5.94,6.16 -1.65,1.21 -4.18,2.31 -2.53,1.1 -5.06,1.87 -2.53,0.66 -4.18,0.66 -0.55,1.32 -1.1,3.52 -0.44,2.2 -0.44,4.51 0,2.75 1.1,4.95 1.1,2.2 4.07,2.2 3.63,0 6.71,-2.09 3.19,-2.09 5.61,-5.28 2.53,-3.19 4.29,-6.49 1.76,-3.3 2.75,-5.61 1.32,0 1.32,0.99 -1.43,3.08 -3.3,6.71 -1.76,3.63 -4.29,6.82 -2.42,3.08 -5.94,5.17 -3.41,1.98 -8.03,1.98 z m -1.98,-19.36 q 1.54,0 5.17,-1.1 3.63,-1.21 6.6,-3.74 2.86,-2.53 4.4,-5.5 1.54,-3.08 1.54,-5.17 0,-2.42 -1.76,-2.42 -1.32,0 -3.63,1.76 -2.31,1.76 -5.72,5.94 -2.09,2.64 -3.96,5.72 -1.87,3.08 -2.64,4.51 z"
     id="text1"
     fill="#f0e6cc"
     aria-label="Skydive" />
  <!-- gold underline flourish -->
  <path
     d="M 140 202 C 280 212 400 210 540 202"
     fill="none"
     stroke="#b89a5a"
     stroke-width="1.1"
     stroke-linecap="round"
     id="path1" />
  <!-- 420DZ -->
  <path
     d="m 289.29999,254.82 q -0.15,0.075 -0.135,-0.09 l 1.35,-7.605 0.3,-0.195 -4.125,4.41 q -0.075,0.105 0.06,0.105 1.05,0 1.86,-0.015 0.81,-0.015 1.53,-0.03 0.72,-0.03 1.5,-0.045 0.045,0 0.03,0.165 -0.015,0.15 -0.06,0.315 -0.045,0.15 -0.09,0.15 -0.72,-0.045 -1.485,-0.06 -0.765,-0.03 -1.725,-0.03 -0.96,-0.015 -2.265,-0.015 -0.06,0 -0.075,-0.06 -0.03,-0.06 0.03,-0.12 l 5.175,-5.64 q 0.03,-0.045 0.12,-0.03 0.09,0.015 0.075,0.09 l -1.47,8.25 q -0.03,0.165 -0.135,0.21 z m 21.34499,-3.03 q 0.93,-0.69 1.62,-1.26 0.69,-0.585 1.17,-1.08 0.48,-0.495 0.75,-0.93 0.27,-0.45 0.33,-0.885 0.105,-0.585 -0.165,-0.945 -0.27,-0.375 -0.81,-0.375 -0.555,0 -1.02,0.465 -0.45,0.45 -0.84,1.35 -0.015,0.06 -0.105,0.03 -0.09,-0.03 -0.075,-0.09 l 0.855,-2.205 q 0.03,-0.045 0.09,-0.03 0.075,0.015 0.06,0.075 -0.075,0.24 -0.03,0.315 0.06,0.075 0.15,0.075 0.21,0 0.57,-0.135 0.375,-0.15 0.84,-0.15 0.66,0 0.99,0.42 0.345,0.42 0.21,1.125 -0.075,0.375 -0.3,0.765 -0.21,0.375 -0.63,0.81 -0.405,0.42 -1.05,0.96 -0.645,0.525 -1.575,1.215 -0.06,0.03 -0.045,0.06 0.03,0.015 0.075,0.015 1.065,0 1.695,-0.015 0.63,-0.03 0.975,-0.12 0.36,-0.105 0.525,-0.315 0.18,-0.225 0.315,-0.6 0.03,-0.06 0.105,-0.03 0.09,0.015 0.075,0.075 l -0.435,1.485 q -0.015,0.045 -0.06,0.09 -0.03,0.045 -0.09,0.045 -0.96,0 -2.04,0 -1.065,0 -2.055,0 -0.06,0 -0.105,-0.075 -0.03,-0.075 0.03,-0.135 z m 26.04001,0.405 q -0.78,0 -1.335,-0.405 -0.555,-0.405 -0.795,-1.11 -0.225,-0.705 -0.075,-1.62 0.165,-0.9 0.645,-1.575 0.48,-0.69 1.17,-1.08 0.705,-0.39 1.5,-0.39 0.795,0 1.335,0.405 0.54,0.39 0.765,1.095 0.24,0.69 0.075,1.59 -0.15,0.9 -0.63,1.605 -0.48,0.69 -1.17,1.095 -0.69,0.39 -1.485,0.39 z m 0.195,-0.18 q 0.6,0 1.05,-0.345 0.45,-0.345 0.75,-0.96 0.3,-0.63 0.435,-1.425 0.18,-1.065 0.015,-1.74 -0.15,-0.69 -0.555,-1.02 -0.39,-0.33 -0.93,-0.33 -0.885,0 -1.5,0.78 -0.615,0.78 -0.825,1.965 -0.15,0.87 -0.015,1.575 0.135,0.69 0.525,1.095 0.405,0.405 1.05,0.405 z m 25.09501,0.045 q -0.36,0 -0.885,-0.045 -0.51,-0.045 -0.945,-0.045 -0.45,0 -0.825,0.015 -0.36,0.015 -0.66,0.015 -0.045,0 -0.045,-0.09 0,-0.09 0.045,-0.09 0.48,0 0.735,-0.075 0.27,-0.075 0.39,-0.3 0.12,-0.225 0.195,-0.66 l 1.23,-6.945 q 0.12,-0.645 -0.06,-0.84 -0.165,-0.195 -0.885,-0.195 -0.03,0 -0.03,-0.09 0,-0.09 0.03,-0.09 0.3,0 0.69,0.03 0.39,0.015 0.825,0.015 0.405,0 0.87,-0.03 0.48,-0.045 0.81,-0.045 1.365,0 2.295,0.6 0.93,0.6 1.32,1.635 0.405,1.035 0.18,2.325 -0.195,1.125 -0.72,2.04 -0.51,0.9 -1.245,1.545 -0.72,0.63 -1.575,0.975 -0.855,0.345 -1.74,0.345 z m -0.09,-0.195 q 1.065,0 1.98,-0.495 0.915,-0.51 1.56,-1.485 0.645,-0.99 0.9,-2.4 0.18,-0.99 0.075,-1.83 -0.105,-0.855 -0.465,-1.5 -0.36,-0.645 -0.96,-1.005 -0.6,-0.36 -1.425,-0.36 -0.78,0 -1.14,0.195 -0.36,0.18 -0.495,0.885 l -1.185,6.75 q -0.12,0.645 0.09,0.945 0.21,0.3 1.065,0.3 z m 30.54002,0.165 q -0.99,-0.015 -2.115,-0.03 -1.11,0 -2.22,0 -1.11,0 -2.115,0 -0.06,0 -0.075,-0.06 -0.015,-0.075 0.015,-0.135 l 7.005,-8.805 q 0.075,-0.075 0.06,-0.09 0,-0.03 -0.09,-0.03 -1.44,0 -2.355,0.015 -0.915,0.015 -1.455,0.105 -0.54,0.075 -0.84,0.24 -0.3,0.165 -0.48,0.465 -0.18,0.3 -0.405,0.78 -0.015,0.06 -0.105,0.045 -0.075,-0.03 -0.045,-0.09 l 0.93,-2.265 q 0.015,-0.03 0.105,0 0.09,0.015 0.06,0.06 -0.075,0.255 0.045,0.33 0.12,0.06 0.63,0.06 0.81,0 1.98,0 1.17,0 2.94,0 0.075,0 0.09,0.075 0.03,0.075 -0.015,0.12 l -6.93,8.775 q -0.06,0.075 -0.06,0.105 0.015,0.015 0.09,0.015 1.2,0 2.1,0 0.915,0 1.485,0 0.63,0 1.05,-0.165 0.435,-0.165 0.72,-0.525 0.285,-0.375 0.48,-0.99 0.015,-0.06 0.105,-0.03 0.09,0.015 0.06,0.06 l -0.51,1.815 q 0,0.045 -0.045,0.105 -0.03,0.045 -0.09,0.045 z"
     id="text2"
     fill="#b89a5a"
     aria-label="420DZ" />
</svg>
